<?xml version="1.0" encoding="UTF-8"?>
<svg id="Capa_1" xmlns="http://www.w3.org/2000/svg" version="1.1" viewBox="0 0 141.73 141.73">
  <!-- Generator: Adobe Illustrator 29.8.5, SVG Export Plug-In . SVG Version: 2.1.1 Build 2)  -->
  <defs>
    <style>
      .st0 {
        fill: #1d1d1b;
      }

      .st1 {
        fill: #fff;
      }
    </style>
  </defs>
  <path class="st0" d="M123.85,138.53H16.61c-7.12,0-13.41-6.29-13.41-14.04V17.25c0-7.76,6.29-14.04,14.04-14.04h107.23c7.76,0,14.04,6.29,14.04,14.04v107.23c0,7.76-6.29,14.04-14.68,14.04Z"/>
  <g>
    <path class="st1" d="M13.49,82.58c.39-.73.78-1.81,1.39-2.39.29-.28.65-.35.93-.61,1.7-1.56.67-3.42.77-5.41.21-4.34,2.16-9.22,4.08-13.06.72-1.43,2.25-4.54,3.38-5.5.55-.47,3.17-1.57,3.59-.99-1.1,8.24-2.76,16.48-4.42,24.65-.19,1.07.74,1.75,1.11,2.59,1.09,2.48.07,5.77-2.23,7.09-.21.12-.85.36-1.05.21-.82-2.09,1.8-5.22-.07-6.89-1.58-1.41-4.08-1.14-4.39,1.17-.21,1.59.17,3.16-1.09,4.48-1.17.19-1.19-.83-1.62-1.63l-.39-1.54v-2.16Z"/>
    <path class="st1" d="M55.71,82.87l-28.32.24c-.41-.1-.18-3.93-.71-4.58.47-5.38,1.38-10.83,2.35-16.16.43-2.34.82-4.8,1.39-7.11.17-.7.44-1.39.61-2.09l20.74-.04.24.07c.14.09.78,2.84.88,3.29,1.31,5.92,2.44,12.58,3.17,18.61.12,1.01.48,2.17.26,3.28-.06.33-.62.78-.62,1.08v3.4Z"/>
    <path class="st1" d="M55.83,105.98h-12.88l-.15-9.54-2.57.02-.26.19v9.25l-.23.21h-12.11l-.24-19.86c1.21-.15,2.44-.01,3.65-.06,6.21-.21,12.47-.33,18.68-.14,1.74.05,3.69-.1,5.4.15.28.04.51.15.7.35v19.43Z"/>
    <path class="st1" d="M46.59,30.24c0,.08.18.53.25.55,1.62.03,3.73.33,4.5,1.96s.76,7.81.67,9.85c-.07,1.44-.2,3.48-1.02,4.69-.52.76-1.94,1.4-2.24,1.93-.35.62.12,1.04-.99,1.17-3.93.45-8.76-.31-12.79-.04-.69-.13-.27-.45-.57-.97-.37-.66-1.77-1.15-2.27-1.66-1.23-1.25-.94-4.83-.97-6.52-.04-2.18-.31-6.26.38-8.26.74-2.12,3.27-1.76,5.02-2.32v-3.63c.14-.22.31-.21.53-.24,1.83-.22,7.14-.22,8.98,0,.22.03.4.02.53.24.1,1.02-.13,2.25,0,3.24Z"/>
    <path class="st1" d="M67.57,79.79c.38.38.52.12.96.97.75,1.44,1.12,3.14.74,4.76-.22.95-1.21,2.51-2.29,2.04-.92-2.55.37-7.26-3.91-6.23-3.3.8-1.27,3.82-1.11,5.99.15,2.03-1.35,1.62-2.39.38-1.43-1.72-1.81-4.09-.94-6.17.21-.51.75-1.04.9-1.57.42-1.45-.48-3.15-.78-4.58-1.42-6.78-2.31-13.67-3.45-20.51l.15-.62c2.38-.2,3.85,1.36,4.98,3.22,2.34,3.83,5.59,11.35,5.85,15.78.09,1.65-.26,3.27-.13,4.92.13.58.62.68.98,1.03.2.19.28.44.42.58Z"/>
    <path class="st1" d="M55.83,115.21h-12.72c.05-.15-.15-.34-.15-.39v-5.25c.14-.22.31-.21.53-.24,1.92-.23,4.63-.13,6.7-.15,1.84-.02,3.69-.08,5.5.23.28.19.12,2.29.14,2.8.04.99.37,1.96,0,3.01Z"/>
    <polygon class="st1" points="27.64 109.34 39.75 109.34 39.98 109.57 39.98 114.82 39.75 115.05 27.64 115.05 27.4 114.82 27.4 109.57 27.64 109.34"/>
  </g>
  <g>
    <path class="st1" d="M73.07,82.58c.39-.73.78-1.81,1.39-2.39.29-.28.65-.35.93-.61,1.7-1.56.67-3.42.77-5.41.21-4.34,2.16-9.22,4.08-13.06.72-1.43,2.25-4.54,3.38-5.5.55-.47,3.17-1.57,3.59-.99-1.1,8.24-2.76,16.48-4.42,24.65-.19,1.07.74,1.75,1.11,2.59,1.09,2.48.07,5.77-2.23,7.09-.21.12-.85.36-1.05.21-.82-2.09,1.8-5.22-.07-6.89-1.58-1.41-4.08-1.14-4.39,1.17-.21,1.59.17,3.16-1.09,4.48-1.17.19-1.19-.83-1.62-1.63l-.39-1.54v-2.16Z"/>
    <path class="st1" d="M115.28,82.87l-28.32.24c-.41-.1-.18-3.93-.71-4.58.47-5.38,1.38-10.83,2.35-16.16.43-2.34.82-4.8,1.39-7.11.17-.7.44-1.39.61-2.09l20.74-.04.24.07c.14.09.78,2.84.88,3.29,1.31,5.92,2.44,12.58,3.17,18.61.12,1.01.48,2.17.26,3.28-.06.33-.62.78-.62,1.08v3.4Z"/>
    <path class="st1" d="M115.4,105.98h-12.88l-.15-9.54-2.57.02-.26.19v9.25l-.23.21h-12.11l-.24-19.86c1.21-.15,2.44-.01,3.65-.06,6.21-.21,12.47-.33,18.68-.14,1.74.05,3.69-.1,5.4.15.28.04.51.15.7.35v19.43Z"/>
    <path class="st1" d="M106.17,30.24c0,.08.18.53.25.55,1.62.03,3.73.33,4.5,1.96s.76,7.81.67,9.85c-.07,1.44-.2,3.48-1.02,4.69-.52.76-1.94,1.4-2.24,1.93-.35.62.12,1.04-.99,1.17-3.93.45-8.76-.31-12.79-.04-.69-.13-.27-.45-.57-.97-.37-.66-1.77-1.15-2.27-1.66-1.23-1.25-.94-4.83-.97-6.52-.04-2.18-.31-6.26.38-8.26.74-2.12,3.27-1.76,5.02-2.32v-3.63c.14-.22.31-.21.53-.24,1.83-.22,7.14-.22,8.98,0,.22.03.4.02.53.24.1,1.02-.13,2.25,0,3.24Z"/>
    <path class="st1" d="M127.14,79.79c.38.38.52.12.96.97.75,1.44,1.12,3.14.74,4.76-.22.95-1.21,2.51-2.29,2.04-.92-2.55.37-7.26-3.91-6.23-3.3.8-1.27,3.82-1.11,5.99.15,2.03-1.35,1.62-2.39.38-1.43-1.72-1.81-4.09-.94-6.17.21-.51.75-1.04.9-1.57.42-1.45-.48-3.15-.78-4.58-1.42-6.78-2.31-13.67-3.45-20.51l.15-.62c2.38-.2,3.85,1.36,4.98,3.22,2.34,3.83,5.59,11.35,5.85,15.78.09,1.65-.26,3.27-.13,4.92.13.58.62.68.98,1.03.2.19.28.44.42.58Z"/>
    <path class="st1" d="M115.4,115.21h-12.72c.05-.15-.15-.34-.15-.39v-5.25c.14-.22.31-.21.53-.24,1.92-.23,4.63-.13,6.7-.15,1.84-.02,3.69-.08,5.5.23.28.19.12,2.29.14,2.8.04.99.37,1.96,0,3.01Z"/>
    <polygon class="st1" points="87.21 109.34 99.32 109.34 99.55 109.57 99.55 114.82 99.32 115.05 87.21 115.05 86.98 114.82 86.98 109.57 87.21 109.34"/>
  </g>
</svg>