<?xml version="1.0" encoding="UTF-8"?>
<svg id="Capa_1" xmlns="http://www.w3.org/2000/svg" version="1.1" viewBox="0 0 141.73 141.73">
  <!-- Generator: Adobe Illustrator 29.8.5, SVG Export Plug-In . SVG Version: 2.1.1 Build 2)  -->
  <defs>
    <style>
      .st0 {
        fill: #1d1d1b;
      }

      .st1, .st2 {
        fill: #fff;
      }

      .st2 {
        stroke: #1c1e1b;
        stroke-linecap: round;
        stroke-miterlimit: 10;
        stroke-width: 10px;
      }
    </style>
  </defs>
  <path class="st0" d="M123.85,138.53H16.61c-7.12,0-13.41-6.29-13.41-14.04V17.25c0-7.76,6.29-14.04,14.04-14.04h107.23c7.76,0,14.04,6.29,14.04,14.04v107.23c0,7.76-6.29,14.04-14.68,14.04Z"/>
  <g>
    <rect class="st1" x="24.64" y="15.97" width="92.45" height="109.79" rx="10.47" ry="10.47"/>
    <line class="st2" x1="55.04" y1="36.19" x2="102.04" y2="36.19"/>
    <line class="st2" x1="55.04" y1="81.58" x2="102.04" y2="81.58"/>
    <line class="st2" x1="55.04" y1="58.88" x2="102.04" y2="58.88"/>
    <line class="st2" x1="55.04" y1="104.27" x2="102.04" y2="104.27"/>
    <line class="st2" x1="38.82" y1="36.19" x2="39.83" y2="36.19"/>
    <line class="st2" x1="38.82" y1="81.58" x2="39.83" y2="81.58"/>
    <line class="st2" x1="38.82" y1="58.88" x2="39.83" y2="58.88"/>
    <line class="st2" x1="38.82" y1="104.27" x2="39.83" y2="104.27"/>
  </g>
</svg>