<?xml version="1.0" encoding="UTF-8"?>
<svg id="Capa_1" data-name="Capa 1" xmlns="http://www.w3.org/2000/svg" xmlns:xlink="http://www.w3.org/1999/xlink" viewBox="0 0 141.73 141.73">
  <defs>
    <style>
      .cls-1 {
        fill: #1d1d1b;
      }

      .cls-2 {
        fill: #fff;
      }

      .cls-3 {
        fill: none;
      }

      .cls-4 {
        clip-path: url(#clippath);
      }
    </style>
    <clipPath id="clippath">
      <path class="cls-3" d="M116.45,129.08H24.19c-6.13,0-11.53-5.41-11.53-12.08V24.74c0-6.67,5.41-12.08,12.08-12.08h92.26c6.67,0,12.08,5.41,12.08,12.08v92.26c0,6.67-5.41,12.08-12.63,12.08Z"/>
    </clipPath>
  </defs>
  <path class="cls-1" d="M123.85,138.53H16.61c-7.12,0-13.41-6.29-13.41-14.04V17.25c0-7.76,6.29-14.04,14.04-14.04h107.23c7.76,0,14.04,6.29,14.04,14.04v107.23c0,7.76-6.29,14.04-14.68,14.04Z"/>
  <g class="cls-4">
    <g>
      <path class="cls-2" d="M1.61,157.09c.97-1.83,1.96-4.55,3.49-6.01.73-.7,1.63-.88,2.35-1.53,4.28-3.91,1.69-8.59,1.92-13.6.52-10.89,5.42-23.15,10.26-32.8,1.8-3.58,5.66-11.39,8.49-13.82,1.38-1.18,7.96-3.93,9.01-2.48-2.76,20.7-6.92,41.39-11.09,61.91-.49,2.69,1.86,4.39,2.79,6.51,2.74,6.22.18,14.48-5.6,17.81-.52.3-2.13.89-2.64.52-2.07-5.24,4.52-13.1-.18-17.29-3.97-3.54-10.25-2.85-11.02,2.94-.53,3.99.42,7.94-2.75,11.24-2.94.48-3-2.09-4.07-4.1l-.97-3.88v-5.43Z"/>
      <path class="cls-2" d="M107.63,157.82l-71.13.6c-1.04-.24-.46-9.87-1.78-11.49,1.18-13.52,3.46-27.19,5.9-40.59,1.07-5.88,2.05-12.06,3.49-17.85.44-1.75,1.11-3.5,1.53-5.26l52.09-.1.59.18c.36.24,1.95,7.13,2.21,8.27,3.29,14.86,6.12,31.6,7.97,46.73.31,2.55,1.2,5.46.66,8.25-.16.82-1.55,1.96-1.55,2.72v8.54Z"/>
      <path class="cls-2" d="M84.74,25.64c.02.19.46,1.34.63,1.38,4.06.08,9.38.83,11.29,4.93,1.93,4.13,1.91,19.61,1.68,24.74-.17,3.61-.5,8.75-2.57,11.79-1.29,1.9-4.86,3.52-5.62,4.85-.89,1.55.3,2.62-2.49,2.94-9.87,1.14-22.01-.78-32.12-.11-1.72-.32-.68-1.12-1.42-2.44-.93-1.66-4.44-2.9-5.71-4.18-3.1-3.14-2.36-12.13-2.44-16.37-.1-5.48-.79-15.72.96-20.74,1.86-5.33,8.21-4.41,12.61-5.82v-9.12c.34-.55.77-.54,1.34-.6,4.6-.54,17.94-.54,22.54,0,.56.07,1,.05,1.34.6.24,2.57-.33,5.66,0,8.15Z"/>
      <path class="cls-2" d="M137.42,150.08c.97.96,1.31.31,2.41,2.43,1.89,3.62,2.81,7.89,1.86,11.96-.56,2.39-3.03,6.32-5.75,5.12-2.31-6.4.93-18.24-9.82-15.65-8.29,2-3.18,9.6-2.78,15.04.38,5.1-3.4,4.06-5.99.95-3.6-4.32-4.54-10.28-2.36-15.49.53-1.27,1.88-2.62,2.26-3.94,1.06-3.65-1.21-7.91-1.95-11.49-3.56-17.03-5.79-34.34-8.66-51.51l.38-1.56c5.97-.51,9.66,3.41,12.51,8.1,5.87,9.63,14.05,28.5,14.69,39.63.24,4.16-.64,8.21-.32,12.35.33,1.46,1.55,1.7,2.46,2.59.49.48.7,1.11,1.06,1.46Z"/>
    </g>
  </g>
</svg>