<?xml version="1.0" encoding="UTF-8"?>
<svg id="Capa_1" xmlns="http://www.w3.org/2000/svg" version="1.1" viewBox="0 0 53.11 53.3">
  <!-- Generator: Adobe Illustrator 29.8.5, SVG Export Plug-In . SVG Version: 2.1.1 Build 2)  -->
  <defs>
    <style>
      .st0 {
        fill: #1d1d1b;
      }

      .st1 {
        fill: #e94b3b;
      }
    </style>
  </defs>
  <circle class="st1" cx="26.68" cy="26.92" r="25.62"/>
  <path class="st0" d="M30.86,13.71v6.32l-1.28,8.22c0,1.17-.18,2.18-.53,3.03-.35.86-1.15,1.29-2.4,1.29s-2.05-.43-2.4-1.29c-.35-.86-.53-1.87-.53-3.03l-1.34-8.32v-6.27c0-1.56.3-2.9.89-4.02s1.72-1.68,3.38-1.68,2.8.57,3.37,1.72c.57,1.15.85,2.49.85,4.03ZM30.86,39.66c0,1.46-.37,2.53-1.1,3.22s-1.77,1.04-3.11,1.04c-2.84,0-4.26-1.42-4.26-4.26,0-1.47.37-2.54,1.1-3.21s1.79-1,3.16-1,2.48.33,3.17,1c.69.67,1.04,1.74,1.04,3.21Z"/>
</svg>