<?xml version="1.0" encoding="UTF-8"?>
<svg id="Capa_3" xmlns="http://www.w3.org/2000/svg" version="1.1" viewBox="0 0 67.77 50.89">
  <!-- Generator: Adobe Illustrator 29.8.5, SVG Export Plug-In . SVG Version: 2.1.1 Build 2)  -->
  <defs>
    <style>
      .st0 {
        fill: #fff;
      }

      .st1 {
        fill: #a3a39f;
      }
    </style>
  </defs>
  <path class="st0" d="M54.16,48.39c-1.02,0-2.02-.4-2.77-1.15l-8.64-8.64h-13.66c-4.3,0-7.83-3.37-8.08-7.61h0s-.52-7.05-.52-7.05l12.52.62c2.07,0,4.37-1.23,4.37-3.49v-.51l6.16-11.19h12.86c4.46,0,8.09,3.63,8.09,8.09v13.05c0,3.88-2.74,7.13-6.39,7.91v6.05c0,1.59-.95,3.01-2.42,3.62-.49.2-1,.3-1.51.3ZM24.97,30.51h.02c0,2.26,1.83,4.09,4.09,4.09h15.32l9.68,9.68v-9.68h2.3c2.25,0,4.09-1.83,4.09-4.09v-13.05c0-2.26-1.83-4.09-4.09-4.09h-10.49l-4.55,8.26c-.31,3.93-3.91,6.94-8.45,6.94l-8.09-.4.17,2.35Z"/>
  <path class="st1" d="M56.38,11.37h-11.68v12.25c0,3.37-2.73,7.09-6.09,7.09h-15.49l-.13.13v-.33c0,3.37,2.73,6.09,6.09,6.09h14.49l9.23,9.23c1.21,1.21,3.28.35,3.28-1.36v-7.87h.3c3.37,0,6.09-2.73,6.09-6.09v-13.05c0-3.37-2.73-6.09-6.09-6.09Z"/>
  <rect class="st0" x="8.64" y="12.39" width="32.6" height="11.15"/>
  <path class="st0" d="M12.78,41.8c-.51,0-1.02-.1-1.5-.3-1.47-.61-2.42-2.03-2.42-3.62v-6.05c-3.65-.78-6.39-4.03-6.39-7.91v-13.05C2.46,6.4,6.09,2.77,10.55,2.77h27.3c4.46,0,8.09,3.63,8.09,8.09v13.05c0,4.46-3.63,8.09-8.09,8.09h-13.66l-8.64,8.64c-.75.75-1.75,1.15-2.77,1.15ZM10.55,6.77c-2.26,0-4.09,1.83-4.09,4.09v13.05c0,2.26,1.83,4.09,4.09,4.09h2.3v9.68l9.68-9.68h15.32c2.25,0,4.09-1.83,4.09-4.09v-13.05c0-2.26-1.83-4.09-4.09-4.09H10.55Z"/>
  <path class="st1" d="M37.85,4.77H10.55c-3.36,0-6.09,2.72-6.09,6.09v13.05c0,3.36,2.72,6.09,6.09,6.09h.3v7.87c0,1.71,2.07,2.57,3.28,1.36l9.23-9.23h14.49c3.36,0,6.09-2.72,6.09-6.09v-13.05c0-3.36-2.72-6.09-6.09-6.09ZM18.1,19.7c0,.77-.43,1.21-1.29,1.21h-4.83c-.82,0-1.29-.44-1.29-1.21v-4.52c0-.81.47-1.21,1.29-1.21h4.83c.86,0,1.29.4,1.29,1.21v4.52ZM28.32,19.7c0,.77-.43,1.21-1.29,1.21h-4.83c-.82,0-1.29-.44-1.29-1.21v-4.52c0-.81.47-1.21,1.29-1.21h4.83c.86,0,1.29.4,1.29,1.21v4.52ZM38.54,19.7c0,.77-.43,1.21-1.29,1.21h-4.83c-.82,0-1.29-.44-1.29-1.21v-4.52c0-.81.47-1.21,1.29-1.21h4.83c.86,0,1.29.4,1.29,1.21v4.52Z"/>
</svg>