<?xml version="1.0" encoding="UTF-8"?>
<svg id="Capa_1" xmlns="http://www.w3.org/2000/svg" version="1.1" viewBox="0 0 63.81 57.65">
  <!-- Generator: Adobe Illustrator 29.8.5, SVG Export Plug-In . SVG Version: 2.1.1 Build 2)  -->
  <defs>
    <style>
      .st0 {
        fill: #a3a39f;
      }

      .st1 {
        fill: none;
      }
    </style>
  </defs>
  <path class="st1" d="M15.14,13.97h-4.83c-.82,0-1.29.4-1.29,1.21v4.52c0,.77.47,1.21,1.29,1.21h4.83c.86,0,1.29-.44,1.29-1.21v-4.52c0-.81-.43-1.21-1.29-1.21Z"/>
  <path class="st0" d="M55.72,12.37h-11.68v12.25c0,3.37-2.73,7.09-6.09,7.09h-15.49l-.13.13v-.33c0,3.37,2.73,6.09,6.09,6.09h14.49l9.23,9.23c1.21,1.21,3.28.35,3.28-1.36v-7.87h.3c3.37,0,6.09-2.73,6.09-6.09v-13.05c0-3.37-2.73-6.09-6.09-6.09Z"/>
  <path class="st0" d="M36.19,4.77H8.89c-3.36,0-6.09,2.72-6.09,6.09v13.05c0,3.36,2.72,6.09,6.09,6.09h.3v7.87c0,1.71,2.07,2.57,3.28,1.36l9.23-9.23h14.49c3.36,0,6.09-2.72,6.09-6.09v-13.05c0-3.36-2.72-6.09-6.09-6.09ZM16.44,19.7c0,.77-.43,1.21-1.29,1.21h-4.83c-.82,0-1.29-.44-1.29-1.21v-4.52c0-.81.47-1.21,1.29-1.21h4.83c.86,0,1.29.4,1.29,1.21v4.52ZM26.66,19.7c0,.77-.43,1.21-1.29,1.21h-4.83c-.82,0-1.29-.44-1.29-1.21v-4.52c0-.81.47-1.21,1.29-1.21h4.83c.86,0,1.29.4,1.29,1.21v4.52ZM36.88,19.7c0,.77-.43,1.21-1.29,1.21h-4.83c-.82,0-1.29-.44-1.29-1.21v-4.52c0-.81.47-1.21,1.29-1.21h4.83c.86,0,1.29.4,1.29,1.21v4.52Z"/>
</svg>