<?xml version="1.0" encoding="UTF-8"?>
<svg id="Capa_1" xmlns="http://www.w3.org/2000/svg" version="1.1" viewBox="0 0 41.73 37.48">
  <!-- Generator: Adobe Illustrator 29.8.5, SVG Export Plug-In . SVG Version: 2.1.1 Build 2)  -->
  <defs>
    <style>
      .st0 {
        fill: #a3a39f;
      }
    </style>
  </defs>
  <path class="st0" d="M34.53,1.45H7.23C3.87,1.45,1.14,4.17,1.14,7.54v13.05c0,3.36,2.72,6.09,6.09,6.09h.3v7.87c0,1.71,2.07,2.57,3.28,1.36l9.23-9.23h14.49c3.36,0,6.09-2.72,6.09-6.09V7.54c0-3.36-2.72-6.09-6.09-6.09ZM14.78,16.38c0,.77-.43,1.21-1.29,1.21h-4.83c-.82,0-1.29-.44-1.29-1.21v-4.52c0-.81.47-1.21,1.29-1.21h4.83c.86,0,1.29.4,1.29,1.21v4.52ZM25,16.38c0,.77-.43,1.21-1.29,1.21h-4.83c-.82,0-1.29-.44-1.29-1.21v-4.52c0-.81.47-1.21,1.29-1.21h4.83c.86,0,1.29.4,1.29,1.21v4.52ZM35.22,16.38c0,.77-.43,1.21-1.29,1.21h-4.83c-.82,0-1.29-.44-1.29-1.21v-4.52c0-.81.47-1.21,1.29-1.21h4.83c.86,0,1.29.4,1.29,1.21v4.52Z"/>
</svg>